<svg xmlns="http://www.w3.org/2000/svg" version="1.1" x="0" y="0" viewBox="0 0 128 128" xml:space="preserve"><g id="icon"><path d="M108.6 41.1c0 1 0.1 2 0.1 3 0 30.4-23.1 65.4-65.4 65.4 -13 0-25.1-3.8-35.2-10.3 1.8 0.2 3.6 0.3 5.5 0.3 10.8 0 20.7-3.7 28.6-9.8 -10.1-0.2-18.5-6.8-21.5-16 1.4 0.3 2.8 0.4 4.3 0.4 2.1 0 4.1-0.3 6.1-0.8 -10.5-2.1-18.4-11.4-18.4-22.5 0-0.1 0-0.2 0-0.3 3.1 1.7 6.6 2.8 10.4 2.9 -6.2-4.1-10.2-11.2-10.2-19.1 0-4.2 1.1-8.2 3.1-11.6 11.3 13.9 28.3 23.1 47.4 24 -0.4-1.7-0.6-3.4-0.6-5.2 0-12.7 10.3-23 23-23 6.6 0 12.6 2.8 16.8 7.3 5.2-1 10.2-2.9 14.6-5.6 -1.7 5.4-5.4 9.9-10.1 12.7 4.7-0.6 9.1-1.8 13.2-3.6C116.9 33.9 113 37.9 108.6 41.1z"/></g></svg>
